<svg xmlns="http://www.w3.org/2000/svg" xmlns:xlink="http://www.w3.org/1999/xlink" width="323.688" height="54.409" viewBox="0 0 323.688 54.409">
  <defs>
    <linearGradient id="linear-gradient" x1="0.503" y1="0.042" x2="0.486" y2="0.998" gradientUnits="objectBoundingBox">
      <stop offset="0" stop-color="#2dd8b5"/>
      <stop offset="1" stop-color="#006e6e"/>
    </linearGradient>
    <clipPath id="clip-path">
      <path id="パス_56" data-name="パス 56" d="M42.86,106.955H52.99V96.825H42.86ZM32.729,96.825h10.13V86.695H32.729Z" transform="translate(-32.729 -86.695)" fill="url(#linear-gradient)"/>
    </clipPath>
  </defs>
  <g id="logo_new_w" transform="translate(-5865 -3347.151)">
    <path id="パス_49" data-name="パス 49" d="M41.132,47.831c0-1.346-.046-2.025-.755-2.55a3.3,3.3,0,0,0-2.917-.115,18.7,18.7,0,0,1-5.462.88,19.806,19.806,0,0,1-5.261-.6,26.1,26.1,0,0,0-6.352-.906c-7.126,0-13.382,3.039-16.947,8.6C.945,57.033,0,61.272,0,67.1c0,5.634-.163,11.514,4.7,17.586,4.369,5.454,10.755,7,15.867,7A20.2,20.2,0,0,0,35.4,85.434a21.314,21.314,0,0,0,5.738-14.775V65.568l0-.194ZM28.625,77.837a10.068,10.068,0,0,1-8.056,3.734c-3.328,0-6.588-1.357-8.288-3.734-2.2-3.068-2.143-5.881-2.143-10.022,0-3.7.134-6.547,1.66-8.917,1.812-2.813,5.005-4.223,8.77-4.223,3.265,0,6.377,1.04,8.393,3.694C30.646,60.586,31,63,31,67.644c0,1.5.007,2.651.007,3.785,0,2.5-.627,4.07-2.381,6.408" transform="translate(5865 3309.872)" fill="#fff"/>
    <rect id="長方形_43" data-name="長方形 43" width="10.421" height="37.055" transform="translate(5984.724 3363.665)" fill="#fff"/>
    <rect id="長方形_44" data-name="長方形 44" width="10.42" height="10.463" transform="translate(5984.724 3347.151)" fill="#fff"/>
    <path id="パス_50" data-name="パス 50" d="M146.431,33.159H135.845v9.094h-6.35v8.789h6.35V72.295a27.7,27.7,0,0,0,.572,5.768,12.161,12.161,0,0,0,2.126,4.782,10,10,0,0,0,4.055,3.282,19.077,19.077,0,0,0,7.28,1.195,23.753,23.753,0,0,0,3.7-.309,14.641,14.641,0,0,0,2.682-.679V78.027a15.911,15.911,0,0,1-4.424.788,5.027,5.027,0,0,1-4.414-2.016,9.518,9.518,0,0,1-.994-4.591V51.041h10.524V42.253H146.431Z" transform="translate(5818.107 3313.992)" fill="#fff"/>
    <path id="パス_51" data-name="パス 51" d="M91.064,53.033v-6.21H80.582V91.442H91.064V71.563c0-7.725,2.781-10.123,4.708-11.775,2.816-2.413,5.841-3.325,11.295-3.325v-10.3c-9.536,0-13.43,3.293-16,6.871" transform="translate(5835.82 3309.284)" fill="#fff"/>
    <path id="パス_52" data-name="パス 52" d="M314.7,46.178a14.634,14.634,0,0,0-8.629,3.876V46.79H295.585V91.409h10.482V65.566l0,0v-.316c.019-5.372,3.814-9.363,9.18-9.363,5.19,0,8.621,4.356,8.86,9.495V91.41H334.2V63.468a17.307,17.307,0,0,0-5.349-13.052c-3.408-3.334-8.647-4.767-14.154-4.237" transform="translate(5757.962 3309.317)" fill="#fff"/>
    <path id="パス_53" data-name="パス 53" d="M398.551,76.422c-1.355,3.742-4.465,5.894-9.032,5.894a8.633,8.633,0,0,1-8.625-5.894c-.79-2.338-1.015-4.491-1.082-8.326a25.635,25.635,0,0,1,.792-8.327,8.274,8.274,0,0,1,8.419-5.893c4.567,0,7.752,2.152,9.238,5.893a18.482,18.482,0,0,1,.533,1.788h9.992a28.816,28.816,0,0,0-1.166-4.595c-2.666-7.859-9.675-12.443-18.76-12.443-9.177,0-16.027,4.584-18.418,12.443a33.052,33.052,0,0,0-1.3,11.133,33.542,33.542,0,0,0,1.693,11.133c2.666,7.859,9.676,12.442,18.853,12.442,9.084,0,15.934-4.584,18.325-12.442A27.75,27.75,0,0,0,409,74.767H399a15.819,15.819,0,0,1-.451,1.655" transform="translate(5731.332 3309.878)" fill="#fff"/>
    <path id="パス_54" data-name="パス 54" d="M257.112,56.963C254.4,49.1,247.253,44.521,238,44.521c-9.351,0-16.332,4.584-18.768,12.442A32.488,32.488,0,0,0,217.9,68.1a32.967,32.967,0,0,0,1.725,11.133c2.717,7.859,9.86,12.443,19.211,12.443,9.256,0,16.236-4.584,18.673-12.443.218-.7.409-1.39.573-2.095h-9.609c-1.387,3.3-5.789,5.183-9.8,5.183a8.793,8.793,0,0,1-8.789-5.895,19.026,19.026,0,0,1-.973-5.086h29.624c.178-4.824.161-9.753-1.42-14.371v0m-28.2,6.184a18.183,18.183,0,0,1,.673-3.378c1.269-3.742,4.285-5.894,8.579-5.894a8.672,8.672,0,0,1,8.693,5.894,18.585,18.585,0,0,1,.794,3.378Z" transform="translate(5786.098 3309.878)" fill="#fff"/>
    <path id="パス_55" data-name="パス 55" d="M482.832,56.966v0c-2.716-7.859-9.859-12.442-19.115-12.442-9.351,0-16.332,4.584-18.768,12.442A32.486,32.486,0,0,0,443.62,68.1a32.966,32.966,0,0,0,1.725,11.133c2.717,7.859,9.86,12.443,19.211,12.443,9.256,0,16.236-4.584,18.673-12.443.218-.7.409-1.39.573-2.095h-9.609c-1.387,3.3-5.789,5.183-9.8,5.183a8.793,8.793,0,0,1-8.789-5.895,19.026,19.026,0,0,1-.973-5.086h29.624c.178-4.824.161-9.753-1.42-14.371m-28.2,6.182a18.175,18.175,0,0,1,.673-3.378c1.269-3.742,4.285-5.894,8.579-5.894a8.672,8.672,0,0,1,8.693,5.894,18.573,18.573,0,0,1,.794,3.378Z" transform="translate(5704.36 3309.878)" fill="#fff"/>
    <g id="グループ_29" data-name="グループ 29" transform="translate(5885.877 3381.301)" clip-path="url(#clip-path)">
      <rect id="長方形_46" data-name="長方形 46" width="28.653" height="28.653" transform="translate(-10.13 10.13) rotate(-45)" fill="url(#linear-gradient)"/>
    </g>
  </g>
</svg>